<svg width="2691" height="1981" viewBox="0 0 2691 1981" fill="none" xmlns="http://www.w3.org/2000/svg">
<path opacity="0.2" fill-rule="evenodd" clip-rule="evenodd" d="M2098 1981C2425.5 1981 2691 1715.5 2691 1388C2691 1060.5 2425.5 795 2098 795C1770.5 795 1505 1060.5 1505 1388C1505 1715.5 1770.5 1981 2098 1981ZM2098 1781C1880.95 1781 1705 1605.05 1705 1388C1705 1170.95 1880.95 995 2098 995C2315.05 995 2491 1170.95 2491 1388C2491 1605.05 2315.05 1781 2098 1781Z" fill="url(#paint0_linear)"/>
<path opacity="0.2" fill-rule="evenodd" clip-rule="evenodd" d="M593 1186C920.505 1186 1186 920.505 1186 593C1186 265.495 920.505 0 593 0C265.495 0 0 265.495 0 593C0 920.505 265.495 1186 593 1186ZM593 986C375.952 986 200 810.048 200 593C200 375.952 375.952 200 593 200C810.048 200 986 375.952 986 593C986 810.048 810.048 986 593 986Z" fill="url(#paint1_linear)"/>
<defs>
<linearGradient id="paint0_linear" x1="2356.46" y1="963.851" x2="1508.16" y2="963.851" gradientUnits="userSpaceOnUse">
<stop stop-color="white"/>
<stop offset="1" stop-color="white" stop-opacity="0.01"/>
</linearGradient>
<linearGradient id="paint1_linear" x1="1186" y1="1.58081" x2="3.16162" y2="1.58081" gradientUnits="userSpaceOnUse">
<stop stop-color="white" stop-opacity="0.01"/>
<stop offset="1" stop-color="white"/>
</linearGradient>
</defs>
</svg>
